<svg width="23" height="21" viewBox="0 0 23 21" fill="none" xmlns="http://www.w3.org/2000/svg">
<path d="M0.531358 10.5C0.534148 8.48684 1.3351 6.55696 2.7586 5.13346C4.1821 3.70996 6.11198 2.90901 8.12511 2.90622H18.2501V1.21872C18.2496 1.05214 18.2984 0.889135 18.3904 0.750246C18.4823 0.611356 18.6133 0.502796 18.7669 0.438248C18.9228 0.37746 19.0926 0.362039 19.2569 0.393768C19.4211 0.425498 19.573 0.503082 19.695 0.617545L22.2263 3.1488C22.3847 3.30876 22.4736 3.52481 22.4736 3.74997C22.4736 3.97512 22.3847 4.19117 22.2263 4.35114L19.695 6.88239C19.5331 7.0372 19.3179 7.12402 19.0939 7.12497C18.9819 7.12448 18.871 7.10301 18.7669 7.06169C18.6133 6.99714 18.4823 6.88858 18.3904 6.74969C18.2984 6.6108 18.2496 6.44779 18.2501 6.28122V4.59372H8.12511C6.55867 4.59372 5.0564 5.21598 3.94876 6.32362C2.84112 7.43125 2.21886 8.93353 2.21886 10.5C2.21886 10.7237 2.12996 10.9384 1.97173 11.0966C1.8135 11.2548 1.59888 11.3437 1.37511 11.3437C1.15133 11.3437 0.93672 11.2548 0.778486 11.0966C0.620252 10.9384 0.531358 10.7237 0.531358 10.5ZM21.6251 9.65622C21.4013 9.65622 21.1867 9.74511 21.0285 9.90335C20.8703 10.0616 20.7814 10.2762 20.7814 10.5C20.7814 12.0664 20.1591 13.5687 19.0515 14.6763C17.9438 15.784 16.4415 16.4062 14.8751 16.4062H4.75011V14.7187C4.75063 14.5521 4.70183 14.3891 4.60986 14.2502C4.5179 14.1114 4.38687 14.0028 4.23331 13.9382C4.07746 13.8775 3.90759 13.862 3.74334 13.8938C3.57909 13.9255 3.42718 14.0031 3.30519 14.1175L0.773936 16.6488C0.615495 16.8088 0.526611 17.0248 0.526611 17.25C0.526611 17.4751 0.615495 17.6912 0.773936 17.8511L3.30519 20.3824C3.46715 20.5372 3.68231 20.624 3.90636 20.625C4.01834 20.6245 4.12924 20.603 4.23331 20.5617C4.38687 20.4971 4.5179 20.3886 4.60986 20.2497C4.70183 20.1108 4.75063 19.9478 4.75011 19.7812V18.0937H14.8751C16.8882 18.0909 18.8181 17.29 20.2416 15.8665C21.6651 14.443 22.4661 12.5131 22.4689 10.5C22.4689 10.2762 22.38 10.0616 22.2217 9.90335C22.0635 9.74511 21.8489 9.65622 21.6251 9.65622Z" fill="#1879F9"/>
</svg>
