<svg width="13" height="15" viewBox="0 0 13 15" fill="none" xmlns="http://www.w3.org/2000/svg">
<path d="M0 12.75V11.25H1.625V6C1.625 4.9625 1.96354 4.0405 2.64062 3.234C3.31771 2.428 4.19792 1.9 5.28125 1.65V1.125C5.28125 0.8125 5.39987 0.547 5.63713 0.3285C5.87383 0.1095 6.16146 0 6.5 0C6.83854 0 7.12617 0.1095 7.36287 0.3285C7.60013 0.547 7.71875 0.8125 7.71875 1.125V1.65C8.80208 1.9 9.68229 2.428 10.3594 3.234C11.0365 4.0405 11.375 4.9625 11.375 6V11.25H13V12.75H0ZM6.5 15C6.05312 15 5.67071 14.8533 5.35275 14.5597C5.03425 14.2657 4.875 13.9125 4.875 13.5H8.125C8.125 13.9125 7.96602 14.2657 7.64806 14.5597C7.32956 14.8533 6.94688 15 6.5 15Z" fill="#FFD90F"/>
</svg>
