<svg width="13" height="15" viewBox="0 0 13 15" fill="none" xmlns="http://www.w3.org/2000/svg">
<path d="M12.5 11.75H11.375H10.875V11.25V6C10.875 5.08206 10.5792 4.27349 9.97653 3.55561L12.5 11.75ZM12.5 11.75V12.25H0.5V11.75H1.625H2.125V11.25V6C2.125 5.08206 2.42082 4.27349 3.02347 3.55561L12.5 11.75ZM5.78125 2.04776L5.39368 2.1372C4.40977 2.36425 3.62678 2.83748 3.02357 3.55549L5.78125 2.04776ZM5.78125 2.04776V1.65M5.78125 2.04776V1.65M5.78125 1.65V1.125C5.78125 0.957252 5.83765 0.823561 5.97585 0.696289L5.97668 0.695515M5.78125 1.65L5.97668 0.695515M5.97668 0.695515C6.11604 0.566581 6.28045 0.5 6.5 0.5C6.71955 0.5 6.88396 0.566581 7.02331 0.695516L7.02415 0.696288M5.97668 0.695515L7.02415 0.696288M7.02415 0.696288C7.16235 0.823562 7.21875 0.957253 7.21875 1.125V1.65V2.04776M7.02415 0.696288L7.21875 2.04776M7.21875 2.04776L7.60632 2.1372M7.21875 2.04776L7.60632 2.1372M7.60632 2.1372C8.59023 2.36425 9.37322 2.83748 9.97643 3.55549L7.60632 2.1372ZM6.5 14.5C6.17428 14.5 5.9142 14.3976 5.69189 14.1923C5.62445 14.1301 5.56873 14.0662 5.52384 14H7.47656C7.43179 14.0662 7.37622 14.1301 7.30899 14.1923C7.08606 14.3976 6.82561 14.5 6.5 14.5Z" stroke="#FFD90F"/>
</svg>
