<svg width="30" height="30" viewBox="0 0 30 30" fill="none" xmlns="http://www.w3.org/2000/svg">
<path d="M13.5834 22.0833H16.4167V16.4167H22.0834V13.5833H16.4167V7.91666H13.5834V13.5833H7.91671V16.4167H13.5834V22.0833ZM15 29.1667C13.0403 29.1667 11.1987 28.7946 9.47504 28.0503C7.75143 27.3071 6.25212 26.2979 4.97712 25.0229C3.70212 23.7479 2.69299 22.2486 1.94971 20.525C1.20549 18.8014 0.833374 16.9597 0.833374 15C0.833374 13.0403 1.20549 11.1986 1.94971 9.475C2.69299 7.75138 3.70212 6.25208 4.97712 4.97708C6.25212 3.70208 7.75143 2.69247 9.47504 1.94824C11.1987 1.20497 13.0403 0.833328 15 0.833328C16.9598 0.833328 18.8014 1.20497 20.525 1.94824C22.2487 2.69247 23.748 3.70208 25.023 4.97708C26.298 6.25208 27.3071 7.75138 28.0504 9.475C28.7946 11.1986 29.1667 13.0403 29.1667 15C29.1667 16.9597 28.7946 18.8014 28.0504 20.525C27.3071 22.2486 26.298 23.7479 25.023 25.0229C23.748 26.2979 22.2487 27.3071 20.525 28.0503C18.8014 28.7946 16.9598 29.1667 15 29.1667Z" fill="#F038D4"/>
</svg>
