<svg width="16" height="4" viewBox="0 0 16 4" fill="none" xmlns="http://www.w3.org/2000/svg">
<path d="M2.35682 3.17507C1.92216 3.17507 1.54988 3.02214 1.23999 2.71626C0.934114 2.41039 0.783191 2.04013 0.787215 1.60547C0.783191 1.17886 0.934114 0.814631 1.23999 0.512784C1.54988 0.206913 1.92216 0.0539773 2.35682 0.0539773C2.76733 0.0539773 3.12954 0.206913 3.44347 0.512784C3.76141 0.814631 3.9224 1.17886 3.92642 1.60547C3.9224 1.89524 3.84593 2.15885 3.69702 2.39631C3.55213 2.63376 3.36096 2.82292 3.12351 2.96378C2.89008 3.10464 2.63452 3.17507 2.35682 3.17507ZM8.38651 3.17507C7.95185 3.17507 7.57957 3.02214 7.26967 2.71626C6.9638 2.41039 6.81288 2.04013 6.8169 1.60547C6.81288 1.17886 6.9638 0.814631 7.26967 0.512784C7.57957 0.206913 7.95185 0.0539773 8.38651 0.0539773C8.79702 0.0539773 9.15923 0.206913 9.47315 0.512784C9.7911 0.814631 9.95208 1.17886 9.95611 1.60547C9.95208 1.89524 9.87561 2.15885 9.7267 2.39631C9.58182 2.63376 9.39065 2.82292 9.1532 2.96378C8.91977 3.10464 8.6642 3.17507 8.38651 3.17507ZM14.4162 3.17507C13.9815 3.17507 13.6093 3.02214 13.2994 2.71626C12.9935 2.41039 12.8426 2.04013 12.8466 1.60547C12.8426 1.17886 12.9935 0.814631 13.2994 0.512784C13.6093 0.206913 13.9815 0.0539773 14.4162 0.0539773C14.8267 0.0539773 15.1889 0.206913 15.5028 0.512784C15.8208 0.814631 15.9818 1.17886 15.9858 1.60547C15.9818 1.89524 15.9053 2.15885 15.7564 2.39631C15.6115 2.63376 15.4203 2.82292 15.1829 2.96378C14.9495 3.10464 14.6939 3.17507 14.4162 3.17507Z" fill="white"/>
</svg>
