<svg width="29" height="29" viewBox="0 0 29 29" fill="none" xmlns="http://www.w3.org/2000/svg">
<path d="M20.0833 18.6667C18.9028 18.6667 17.8993 18.2535 17.0729 17.4271C16.2465 16.6007 15.8333 15.5972 15.8333 14.4167C15.8333 13.2361 16.2465 12.2326 17.0729 11.4063C17.8993 10.5799 18.9028 10.1667 20.0833 10.1667C21.2639 10.1667 22.2674 10.5799 23.0938 11.4063C23.9201 12.2326 24.3333 13.2361 24.3333 14.4167C24.3333 15.5972 23.9201 16.6007 23.0938 17.4271C22.2674 18.2535 21.2639 18.6667 20.0833 18.6667ZM20.0833 15.8333C20.4847 15.8333 20.8209 15.6973 21.092 15.4253C21.364 15.1543 21.5 14.8181 21.5 14.4167C21.5 14.0153 21.364 13.6786 21.092 13.4066C20.8209 13.1355 20.4847 13 20.0833 13C19.6819 13 19.3457 13.1355 19.0747 13.4066C18.8027 13.6786 18.6667 14.0153 18.6667 14.4167C18.6667 14.8181 18.8027 15.1543 19.0747 15.4253C19.3457 15.6973 19.6819 15.8333 20.0833 15.8333ZM13 28.5833C12.5986 28.5833 12.2624 28.4473 11.9913 28.1753C11.7193 27.9043 11.5833 27.5681 11.5833 27.1667V24.475C11.5833 23.9792 11.7014 23.5126 11.9375 23.0753C12.1736 22.639 12.5042 22.291 12.9292 22.0313C13.6847 21.5826 14.3222 21.2696 14.8417 21.092C15.3611 20.9154 16.0576 20.7563 16.9312 20.6146C17.2146 20.5674 17.4979 20.573 17.7813 20.6316C18.0646 20.6911 18.3007 20.8271 18.4896 21.0396L20.0833 22.9167L21.6417 21.0396C21.8306 20.8035 22.0667 20.6618 22.35 20.6146C22.6333 20.5674 22.9167 20.5674 23.2 20.6146C24.0736 20.7563 24.7701 20.9154 25.2896 21.092C25.809 21.2696 26.4465 21.5826 27.2021 22.0313C27.6271 22.291 27.9638 22.639 28.2122 23.0753C28.4596 23.5126 28.5833 23.9792 28.5833 24.475V27.1667C28.5833 27.5681 28.4473 27.9043 28.1753 28.1753C27.9043 28.4473 27.5681 28.5833 27.1667 28.5833H13ZM14.3813 25.75H18.7375L16.825 23.4125C16.4 23.5306 15.9868 23.684 15.5854 23.8729C15.184 24.0618 14.7826 24.2625 14.3813 24.475V25.75ZM21.4292 25.75H25.75V24.475C25.3722 24.2389 24.9826 24.0325 24.5813 23.8559C24.1799 23.6784 23.7667 23.5306 23.3417 23.4125L21.4292 25.75ZM3.08333 22.9167V3.08333V7.93542V7.33333V22.9167ZM3.08333 25.75C2.30417 25.75 1.63692 25.4728 1.08158 24.9184C0.527194 24.3631 0.25 23.6958 0.25 22.9167V3.08333C0.25 2.30417 0.527194 1.63692 1.08158 1.08158C1.63692 0.527194 2.30417 0.25 3.08333 0.25H22.9167C23.6958 0.25 24.3631 0.527194 24.9184 1.08158C25.4728 1.63692 25.75 2.30417 25.75 3.08333V10.1667C25.3722 9.69444 24.959 9.24583 24.5104 8.82083C24.0618 8.39583 23.5306 8.1125 22.9167 7.97083V3.08333H3.08333V22.9167H8.9625C8.89167 23.1764 8.83878 23.4361 8.80383 23.6958C8.76795 23.9556 8.75 24.2153 8.75 24.475V25.75H3.08333ZM7.33333 8.75H15.8333C16.4472 8.27778 17.1201 7.92361 17.8521 7.6875C18.584 7.45139 19.3278 7.33333 20.0833 7.33333C20.0833 6.93194 19.9473 6.59525 19.6753 6.32325C19.4043 6.0522 19.0681 5.91667 18.6667 5.91667H7.33333C6.93194 5.91667 6.59525 6.0522 6.32325 6.32325C6.0522 6.59525 5.91667 6.93194 5.91667 7.33333C5.91667 7.73472 6.0522 8.07094 6.32325 8.342C6.59525 8.614 6.93194 8.75 7.33333 8.75ZM7.33333 14.4167H13C13 13.9208 13.0534 13.4368 13.1601 12.9646C13.2659 12.4924 13.4132 12.0319 13.6021 11.5833H7.33333C6.93194 11.5833 6.59525 11.7189 6.32325 11.9899C6.0522 12.2619 5.91667 12.5986 5.91667 13C5.91667 13.4014 6.0522 13.7376 6.32325 14.0087C6.59525 14.2807 6.93194 14.4167 7.33333 14.4167ZM7.33333 20.0833H10.8042C11.0639 19.8708 11.3416 19.6819 11.6372 19.5167C11.9318 19.3514 12.2326 19.1979 12.5396 19.0562V18.6667C12.5396 18.2889 12.4395 17.9583 12.2393 17.675C12.0381 17.3917 11.666 17.25 11.1229 17.25H7.33333C6.93194 17.25 6.59525 17.3855 6.32325 17.6566C6.0522 17.9286 5.91667 18.2653 5.91667 18.6667C5.91667 19.0681 6.0522 19.4043 6.32325 19.6753C6.59525 19.9473 6.93194 20.0833 7.33333 20.0833Z" fill="#F038D4"/>
</svg>
